solid points
facet normal 0 0 0
outer loop
vertex 3.9473605811872776 -8.11645304224701 9.512447032735118
vertex -0.9922812420886569 -2.5840395153483753 8.535299776972035
vertex -2.9094806374026323 9.413960487898066 7.862422426443953
endloop
endfacet
facet normal 0 0 0
outer loop
vertex 1.3748239190578744 -7.204060037446851 -7.709398529280531
vertex 3.6499100794995094 -7.204950327813804 -6.001835950497833
vertex 7.068061465363321 -5.321210282693185 -8.83394516621868
endloop
endfacet
facet normal 0 0 0
outer loop
vertex -2.9094806374026323 9.413960487898066 7.862422426443953
vertex -0.9922812420886569 -2.5840395153483753 8.535299776972035
vertex -9.54575853732279 -8.199042784487165 4.447187011929007
endloop
endfacet
facet normal 0 0 0
outer loop
vertex -9.85275460497989 5.738487550042768 3.2970171318406436
vertex -2.9094806374026323 9.413960487898066 7.862422426443953
vertex -9.54575853732279 -8.199042784487165 4.447187011929007
endloop
endfacet
facet normal 0 0 0
outer loop
vertex 3.6499100794995094 -7.204950327813804 -6.001835950497833
vertex 1.3748239190578744 -7.204060037446851 -7.709398529280531
vertex -2.763747788932191 -8.24700161367798 -7.639881957589694
endloop
endfacet
facet normal 0 0 0
outer loop
vertex 1.3748239190578744 -7.204060037446851 -7.709398529280531
vertex 7.068061465363321 -5.321210282693185 -8.83394516621868
vertex -2.763747788932191 -8.24700161367798 -7.639881957589694
endloop
endfacet
facet normal 0 0 0
outer loop
vertex 7.068061465363321 -5.321210282693185 -8.83394516621868
vertex 1.1841432149082713 -3.920998038747756 -9.383643308641211
vertex -2.763747788932191 -8.24700161367798 -7.639881957589694
endloop
endfacet
facet normal 0 0 0
outer loop
vertex -2.9094806374026323 9.413960487898066 7.862422426443953
vertex 4.895243118156342 9.350194648684202 -3.4834928372369607
vertex 9.23795329099029 8.171613814152142 3.9941426762149916
endloop
endfacet
facet normal 0 0 0
outer loop
vertex 4.895243118156342 9.350194648684202 -3.4834928372369607
vertex -2.9094806374026323 9.413960487898066 7.862422426443953
vertex -4.682600770809609 9.383527546954479 5.5750180793158925
endloop
endfacet
facet normal 0 0 0
outer loop
vertex -5.455225564304462 1.0916957403166965 -8.723654877916493
vertex -7.401569893290567 -0.48590147548132556 -5.461813018982317
vertex -3.4027757533442937 -7.109516222679062 -7.931940645548967
endloop
endfacet
facet normal 0 0 0
outer loop
vertex 1.1841432149082713 -3.920998038747756 -9.383643308641211
vertex -5.455225564304462 1.0916957403166965 -8.723654877916493
vertex -3.4027757533442937 -7.109516222679062 -7.931940645548967
endloop
endfacet
facet normal 0 0 0
outer loop
vertex -2.763747788932191 -8.24700161367798 -7.639881957589694
vertex 1.1841432149082713 -3.920998038747756 -9.383643308641211
vertex -3.4027757533442937 -7.109516222679062 -7.931940645548967
endloop
endfacet
facet normal 0 0 0
outer loop
vertex -7.401569893290567 -0.48590147548132556 -5.461813018982317
vertex -5.455225564304462 1.0916957403166965 -8.723654877916493
vertex -9.54392257940605 9.171184264828906 -0.35393126114199447
endloop
endfacet
facet normal 0 0 0
outer loop
vertex -2.9094806374026323 9.413960487898066 7.862422426443953
vertex -9.85275460497989 5.738487550042768 3.2970171318406436
vertex -9.54392257940605 9.171184264828906 -0.35393126114199447
endloop
endfacet
facet normal 0 0 0
outer loop
vertex -9.85275460497989 5.738487550042768 3.2970171318406436
vertex -9.54575853732279 -8.199042784487165 4.447187011929007
vertex -9.54392257940605 9.171184264828906 -0.35393126114199447
endloop
endfacet
facet normal 0 0 0
outer loop
vertex -9.54575853732279 -8.199042784487165 4.447187011929007
vertex -7.401569893290567 -0.48590147548132556 -5.461813018982317
vertex -9.54392257940605 9.171184264828906 -0.35393126114199447
endloop
endfacet
facet normal 0 0 0
outer loop
vertex -4.682600770809609 9.383527546954479 5.5750180793158925
vertex -2.9094806374026323 9.413960487898066 7.862422426443953
vertex -9.54392257940605 9.171184264828906 -0.35393126114199447
endloop
endfacet
facet normal 0 0 0
outer loop
vertex 4.895243118156342 9.350194648684202 -3.4834928372369607
vertex -4.682600770809609 9.383527546954479 5.5750180793158925
vertex -9.54392257940605 9.171184264828906 -0.35393126114199447
endloop
endfacet
facet normal 0 0 0
outer loop
vertex 7.068061465363321 -5.321210282693185 -8.83394516621868
vertex 3.6499100794995094 -7.204950327813804 -6.001835950497833
vertex 5.654704545005725 -8.345400001551228 -0.2668333832367935
endloop
endfacet
facet normal 0 0 0
outer loop
vertex 3.6499100794995094 -7.204950327813804 -6.001835950497833
vertex -2.763747788932191 -8.24700161367798 -7.639881957589694
vertex 5.654704545005725 -8.345400001551228 -0.2668333832367935
endloop
endfacet
facet normal 0 0 0
outer loop
vertex -1.683851956587807 -9.16771652276215 -0.12018361510962094
vertex 3.9473605811872776 -8.11645304224701 9.512447032735118
vertex 5.654704545005725 -8.345400001551228 -0.2668333832367935
endloop
endfacet
facet normal 0 0 0
outer loop
vertex -2.763747788932191 -8.24700161367798 -7.639881957589694
vertex -1.683851956587807 -9.16771652276215 -0.12018361510962094
vertex 5.654704545005725 -8.345400001551228 -0.2668333832367935
endloop
endfacet
facet normal 0 0 0
outer loop
vertex -5.455225564304462 1.0916957403166965 -8.723654877916493
vertex 1.1841432149082713 -3.920998038747756 -9.383643308641211
vertex 0.4134480494307553 -1.2217707938990667 -9.567758402393391
endloop
endfacet
facet normal 0 0 0
outer loop
vertex 1.1841432149082713 -3.920998038747756 -9.383643308641211
vertex 7.068061465363321 -5.321210282693185 -8.83394516621868
vertex 0.4134480494307553 -1.2217707938990667 -9.567758402393391
endloop
endfacet
facet normal 0 0 0
outer loop
vertex -1.8722627711985886 6.280407693320694 -6.660541601845922
vertex -5.455225564304462 1.0916957403166965 -8.723654877916493
vertex 6.525838483887156 7.923215436795335 -7.195018220027785
endloop
endfacet
facet normal 0 0 0
outer loop
vertex 9.23795329099029 8.171613814152142 3.9941426762149916
vertex 4.895243118156342 9.350194648684202 -3.4834928372369607
vertex 6.525838483887156 7.923215436795335 -7.195018220027785
endloop
endfacet
facet normal 0 0 0
outer loop
vertex -5.455225564304462 1.0916957403166965 -8.723654877916493
vertex 0.4134480494307553 -1.2217707938990667 -9.567758402393391
vertex 6.525838483887156 7.923215436795335 -7.195018220027785
endloop
endfacet
facet normal 0 0 0
outer loop
vertex 0.4134480494307553 -1.2217707938990667 -9.567758402393391
vertex 7.068061465363321 -5.321210282693185 -8.83394516621868
vertex 6.525838483887156 7.923215436795335 -7.195018220027785
endloop
endfacet
facet normal 0 0 0
outer loop
vertex 7.068061465363321 -5.321210282693185 -8.83394516621868
vertex 5.654704545005725 -8.345400001551228 -0.2668333832367935
vertex 5.37294983835314 -7.845181080882069 8.320236902752157
endloop
endfacet
facet normal 0 0 0
outer loop
vertex 5.654704545005725 -8.345400001551228 -0.2668333832367935
vertex 3.9473605811872776 -8.11645304224701 9.512447032735118
vertex 5.37294983835314 -7.845181080882069 8.320236902752157
endloop
endfacet
facet normal 0 0 0
outer loop
vertex -9.54575853732279 -8.199042784487165 4.447187011929007
vertex 3.9473605811872776 -8.11645304224701 9.512447032735118
vertex -5.395720182102384 -9.251748876476405 1.0970493878296672
endloop
endfacet
facet normal 0 0 0
outer loop
vertex 3.9473605811872776 -8.11645304224701 9.512447032735118
vertex -1.683851956587807 -9.16771652276215 -0.12018361510962094
vertex -5.395720182102384 -9.251748876476405 1.0970493878296672
endloop
endfacet
facet normal 0 0 0
outer loop
vertex -5.455225564304462 1.0916957403166965 -8.723654877916493
vertex -1.8722627711985886 6.280407693320694 -6.660541601845922
vertex -3.6572221435456935 9.057987901394899 -4.181643237197628
endloop
endfacet
facet normal 0 0 0
outer loop
vertex -9.54392257940605 9.171184264828906 -0.35393126114199447
vertex -5.455225564304462 1.0916957403166965 -8.723654877916493
vertex -3.6572221435456935 9.057987901394899 -4.181643237197628
endloop
endfacet
facet normal 0 0 0
outer loop
vertex 4.895243118156342 9.350194648684202 -3.4834928372369607
vertex -9.54392257940605 9.171184264828906 -0.35393126114199447
vertex -3.6572221435456935 9.057987901394899 -4.181643237197628
endloop
endfacet
facet normal 0 0 0
outer loop
vertex -1.8722627711985886 6.280407693320694 -6.660541601845922
vertex 6.525838483887156 7.923215436795335 -7.195018220027785
vertex -3.6572221435456935 9.057987901394899 -4.181643237197628
endloop
endfacet
facet normal 0 0 0
outer loop
vertex 6.525838483887156 7.923215436795335 -7.195018220027785
vertex 4.895243118156342 9.350194648684202 -3.4834928372369607
vertex -3.6572221435456935 9.057987901394899 -4.181643237197628
endloop
endfacet
facet normal 0 0 0
outer loop
vertex -0.9922812420886569 -2.5840395153483753 8.535299776972035
vertex 3.9473605811872776 -8.11645304224701 9.512447032735118
vertex 0.30114258463429167 -4.880698188647945 8.720871400979266
endloop
endfacet
facet normal 0 0 0
outer loop
vertex 3.9473605811872776 -8.11645304224701 9.512447032735118
vertex -9.54575853732279 -8.199042784487165 4.447187011929007
vertex 0.30114258463429167 -4.880698188647945 8.720871400979266
endloop
endfacet
facet normal 0 0 0
outer loop
vertex -9.54575853732279 -8.199042784487165 4.447187011929007
vertex -0.9922812420886569 -2.5840395153483753 8.535299776972035
vertex 0.30114258463429167 -4.880698188647945 8.720871400979266
endloop
endfacet
facet normal 0 0 0
outer loop
vertex -7.401569893290567 -0.48590147548132556 -5.461813018982317
vertex -9.54575853732279 -8.199042784487165 4.447187011929007
vertex -6.707843648359637 -9.10178761215342 -1.2980587999392412
endloop
endfacet
facet normal 0 0 0
outer loop
vertex -1.683851956587807 -9.16771652276215 -0.12018361510962094
vertex -2.763747788932191 -8.24700161367798 -7.639881957589694
vertex -6.707843648359637 -9.10178761215342 -1.2980587999392412
endloop
endfacet
facet normal 0 0 0
outer loop
vertex -3.4027757533442937 -7.109516222679062 -7.931940645548967
vertex -7.401569893290567 -0.48590147548132556 -5.461813018982317
vertex -6.707843648359637 -9.10178761215342 -1.2980587999392412
endloop
endfacet
facet normal 0 0 0
outer loop
vertex -2.763747788932191 -8.24700161367798 -7.639881957589694
vertex -3.4027757533442937 -7.109516222679062 -7.931940645548967
vertex -6.707843648359637 -9.10178761215342 -1.2980587999392412
endloop
endfacet
facet normal 0 0 0
outer loop
vertex -9.54575853732279 -8.199042784487165 4.447187011929007
vertex -5.395720182102384 -9.251748876476405 1.0970493878296672
vertex -6.707843648359637 -9.10178761215342 -1.2980587999392412
endloop
endfacet
facet normal 0 0 0
outer loop
vertex -5.395720182102384 -9.251748876476405 1.0970493878296672
vertex -1.683851956587807 -9.16771652276215 -0.12018361510962094
vertex -6.707843648359637 -9.10178761215342 -1.2980587999392412
endloop
endfacet
facet normal 0 0 0
outer loop
vertex 3.9473605811872776 -8.11645304224701 9.512447032735118
vertex -2.9094806374026323 9.413960487898066 7.862422426443953
vertex 9.847511281116741 7.833545325098278 4.972160389138985
endloop
endfacet
facet normal 0 0 0
outer loop
vertex -2.9094806374026323 9.413960487898066 7.862422426443953
vertex 9.23795329099029 8.171613814152142 3.9941426762149916
vertex 9.847511281116741 7.833545325098278 4.972160389138985
endloop
endfacet
facet normal 0 0 0
outer loop
vertex 9.23795329099029 8.171613814152142 3.9941426762149916
vertex 6.525838483887156 7.923215436795335 -7.195018220027785
vertex 9.847511281116741 7.833545325098278 4.972160389138985
endloop
endfacet
facet normal 0 0 0
outer loop
vertex 6.525838483887156 7.923215436795335 -7.195018220027785
vertex 7.068061465363321 -5.321210282693185 -8.83394516621868
vertex 9.847511281116741 7.833545325098278 4.972160389138985
endloop
endfacet
facet normal 0 0 0
outer loop
vertex 5.37294983835314 -7.845181080882069 8.320236902752157
vertex 3.9473605811872776 -8.11645304224701 9.512447032735118
vertex 9.847511281116741 7.833545325098278 4.972160389138985
endloop
endfacet
facet normal 0 0 0
outer loop
vertex 7.068061465363321 -5.321210282693185 -8.83394516621868
vertex 5.37294983835314 -7.845181080882069 8.320236902752157
vertex 9.847511281116741 7.833545325098278 4.972160389138985
endloop
endfacet
endsolid points
