solid points
facet normal 0 0 0
outer loop
vertex -2.7528987934895905 -4.369973611531039 9.864519875946634
vertex 8.902533603015769 1.8634837492832759 8.857358371374207
vertex 5.176705837931255 -1.392152516468407 9.069060427586919
endloop
endfacet
facet normal 0 0 0
outer loop
vertex 8.379791398301858 4.950381779507715 7.59121173788532
vertex 8.732837587197274 9.222977457457816 3.036172157450295
vertex 9.196230971641526 2.2009264629820606 8.659049048353104
endloop
endfacet
facet normal 0 0 0
outer loop
vertex 8.902533603015769 1.8634837492832759 8.857358371374207
vertex -2.7528987934895905 -4.369973611531039 9.864519875946634
vertex 2.7402450553723625 6.620227479683393 9.474923058161238
endloop
endfacet
facet normal 0 0 0
outer loop
vertex 9.196230971641526 2.2009264629820606 8.659049048353104
vertex 8.902533603015769 1.8634837492832759 8.857358371374207
vertex 2.7402450553723625 6.620227479683393 9.474923058161238
endloop
endfacet
facet normal 0 0 0
outer loop
vertex 8.379791398301858 4.950381779507715 7.59121173788532
vertex 9.196230971641526 2.2009264629820606 8.659049048353104
vertex 2.7402450553723625 6.620227479683393 9.474923058161238
endloop
endfacet
facet normal 0 0 0
outer loop
vertex 9.196230971641526 2.2009264629820606 8.659049048353104
vertex 8.732837587197274 9.222977457457816 3.036172157450295
vertex 9.779016935188192 -2.1461397641787983 -5.164425327765145
endloop
endfacet
facet normal 0 0 0
outer loop
vertex 9.779016935188192 -2.1461397641787983 -5.164425327765145
vertex 8.732837587197274 9.222977457457816 3.036172157450295
vertex 9.57133203673951 0.5368141976527685 -7.952231938025845
endloop
endfacet
facet normal 0 0 0
outer loop
vertex -9.920772725527623 6.861646268536116 -0.8982136409000834
vertex -0.9793722599778221 9.106291584424753 7.838033383660854
vertex -9.021932083508998 6.860087852890583 2.661999434855911
endloop
endfacet
facet normal 0 0 0
outer loop
vertex -9.918445500280226 -3.821524645097476 9.03508032927229
vertex -9.920772725527623 6.861646268536116 -0.8982136409000834
vertex -9.021932083508998 6.860087852890583 2.661999434855911
endloop
endfacet
facet normal 0 0 0
outer loop
vertex 9.95763488548241 -9.324706913686075 -7.628787958153063
vertex 9.779016935188192 -2.1461397641787983 -5.164425327765145
vertex 9.662091358186586 -1.2962611379671394 -7.4633477663152785
endloop
endfacet
facet normal 0 0 0
outer loop
vertex 9.57133203673951 0.5368141976527685 -7.952231938025845
vertex 9.95763488548241 -9.324706913686075 -7.628787958153063
vertex 9.662091358186586 -1.2962611379671394 -7.4633477663152785
endloop
endfacet
facet normal 0 0 0
outer loop
vertex 9.779016935188192 -2.1461397641787983 -5.164425327765145
vertex 9.57133203673951 0.5368141976527685 -7.952231938025845
vertex 9.662091358186586 -1.2962611379671394 -7.4633477663152785
endloop
endfacet
facet normal 0 0 0
outer loop
vertex -0.9793722599778221 9.106291584424753 7.838033383660854
vertex -9.920772725527623 6.861646268536116 -0.8982136409000834
vertex 0.6978074669685252 9.45098336583403 7.0456851690540425
endloop
endfacet
facet normal 0 0 0
outer loop
vertex 2.7402450553723625 6.620227479683393 9.474923058161238
vertex -0.9793722599778221 9.106291584424753 7.838033383660854
vertex 0.6978074669685252 9.45098336583403 7.0456851690540425
endloop
endfacet
facet normal 0 0 0
outer loop
vertex -5.782354415081854 6.006580769564554 -7.073535761056402
vertex -9.920772725527623 6.861646268536116 -0.8982136409000834
vertex -9.332946916718788 -5.860738825207406 -8.868285426779032
endloop
endfacet
facet normal 0 0 0
outer loop
vertex -0.12367457920722558 4.596189273030305 -9.936996944693227
vertex -5.782354415081854 6.006580769564554 -7.073535761056402
vertex -9.332946916718788 -5.860738825207406 -8.868285426779032
endloop
endfacet
facet normal 0 0 0
outer loop
vertex 9.57133203673951 0.5368141976527685 -7.952231938025845
vertex 8.732837587197274 9.222977457457816 3.036172157450295
vertex 8.645359261150784 2.963859503315838 -7.3745364195484076
endloop
endfacet
facet normal 0 0 0
outer loop
vertex 9.779016935188192 -2.1461397641787983 -5.164425327765145
vertex 9.95763488548241 -9.324706913686075 -7.628787958153063
vertex 9.751752066858963 -5.2109293502858485 4.188376617089842
endloop
endfacet
facet normal 0 0 0
outer loop
vertex 9.196230971641526 2.2009264629820606 8.659049048353104
vertex 9.779016935188192 -2.1461397641787983 -5.164425327765145
vertex 9.751752066858963 -5.2109293502858485 4.188376617089842
endloop
endfacet
facet normal 0 0 0
outer loop
vertex -9.920772725527623 6.861646268536116 -0.8982136409000834
vertex -9.918445500280226 -3.821524645097476 9.03508032927229
vertex -9.263086390783632 -8.846817852407074 -9.144250024711972
endloop
endfacet
facet normal 0 0 0
outer loop
vertex -9.918445500280226 -3.821524645097476 9.03508032927229
vertex -3.9123050129914123 -9.800745154419408 6.962755401795295
vertex -9.263086390783632 -8.846817852407074 -9.144250024711972
endloop
endfacet
facet normal 0 0 0
outer loop
vertex 3.0459852540182126 -9.124493527220068 -9.599408262515663
vertex -0.12367457920722558 4.596189273030305 -9.936996944693227
vertex -9.263086390783632 -8.846817852407074 -9.144250024711972
endloop
endfacet
facet normal 0 0 0
outer loop
vertex -9.332946916718788 -5.860738825207406 -8.868285426779032
vertex -9.920772725527623 6.861646268536116 -0.8982136409000834
vertex -9.263086390783632 -8.846817852407074 -9.144250024711972
endloop
endfacet
facet normal 0 0 0
outer loop
vertex -0.12367457920722558 4.596189273030305 -9.936996944693227
vertex -9.332946916718788 -5.860738825207406 -8.868285426779032
vertex -9.263086390783632 -8.846817852407074 -9.144250024711972
endloop
endfacet
facet normal 0 0 0
outer loop
vertex -0.9793722599778221 9.106291584424753 7.838033383660854
vertex 2.7402450553723625 6.620227479683393 9.474923058161238
vertex -1.9223672647443806 7.85289751031187 8.342579941630255
endloop
endfacet
facet normal 0 0 0
outer loop
vertex -9.021932083508998 6.860087852890583 2.661999434855911
vertex -0.9793722599778221 9.106291584424753 7.838033383660854
vertex -1.9223672647443806 7.85289751031187 8.342579941630255
endloop
endfacet
facet normal 0 0 0
outer loop
vertex -9.918445500280226 -3.821524645097476 9.03508032927229
vertex -9.021932083508998 6.860087852890583 2.661999434855911
vertex -1.9223672647443806 7.85289751031187 8.342579941630255
endloop
endfacet
facet normal 0 0 0
outer loop
vertex -3.9123050129914123 -9.800745154419408 6.962755401795295
vertex -9.918445500280226 -3.821524645097476 9.03508032927229
vertex -8.300420719984384 -4.948669220446287 9.687876447349986
endloop
endfacet
facet normal 0 0 0
outer loop
vertex 2.7402450553723625 6.620227479683393 9.474923058161238
vertex -2.7528987934895905 -4.369973611531039 9.864519875946634
vertex -8.300420719984384 -4.948669220446287 9.687876447349986
endloop
endfacet
facet normal 0 0 0
outer loop
vertex -2.7528987934895905 -4.369973611531039 9.864519875946634
vertex -2.164229532156998 -8.368524959222967 9.171318531859725
vertex -8.300420719984384 -4.948669220446287 9.687876447349986
endloop
endfacet
facet normal 0 0 0
outer loop
vertex -2.164229532156998 -8.368524959222967 9.171318531859725
vertex -3.9123050129914123 -9.800745154419408 6.962755401795295
vertex -8.300420719984384 -4.948669220446287 9.687876447349986
endloop
endfacet
facet normal 0 0 0
outer loop
vertex -1.9223672647443806 7.85289751031187 8.342579941630255
vertex 2.7402450553723625 6.620227479683393 9.474923058161238
vertex -8.300420719984384 -4.948669220446287 9.687876447349986
endloop
endfacet
facet normal 0 0 0
outer loop
vertex -9.918445500280226 -3.821524645097476 9.03508032927229
vertex -1.9223672647443806 7.85289751031187 8.342579941630255
vertex -8.300420719984384 -4.948669220446287 9.687876447349986
endloop
endfacet
facet normal 0 0 0
outer loop
vertex 8.732837587197274 9.222977457457816 3.036172157450295
vertex 8.379791398301858 4.950381779507715 7.59121173788532
vertex 5.9234257218697515 8.172067444103625 6.0722814044370494
endloop
endfacet
facet normal 0 0 0
outer loop
vertex 8.379791398301858 4.950381779507715 7.59121173788532
vertex 2.7402450553723625 6.620227479683393 9.474923058161238
vertex 5.9234257218697515 8.172067444103625 6.0722814044370494
endloop
endfacet
facet normal 0 0 0
outer loop
vertex 0.6978074669685252 9.45098336583403 7.0456851690540425
vertex 8.732837587197274 9.222977457457816 3.036172157450295
vertex 5.9234257218697515 8.172067444103625 6.0722814044370494
endloop
endfacet
facet normal 0 0 0
outer loop
vertex 2.7402450553723625 6.620227479683393 9.474923058161238
vertex 0.6978074669685252 9.45098336583403 7.0456851690540425
vertex 5.9234257218697515 8.172067444103625 6.0722814044370494
endloop
endfacet
facet normal 0 0 0
outer loop
vertex -0.12367457920722558 4.596189273030305 -9.936996944693227
vertex 3.0459852540182126 -9.124493527220068 -9.599408262515663
vertex 4.036847705426075 1.2161745783285394 -9.850613931520444
endloop
endfacet
facet normal 0 0 0
outer loop
vertex 3.0459852540182126 -9.124493527220068 -9.599408262515663
vertex 9.95763488548241 -9.324706913686075 -7.628787958153063
vertex 9.380774320373103 -3.0909338391589625 -8.93679988113206
endloop
endfacet
facet normal 0 0 0
outer loop
vertex 9.95763488548241 -9.324706913686075 -7.628787958153063
vertex 9.57133203673951 0.5368141976527685 -7.952231938025845
vertex 9.380774320373103 -3.0909338391589625 -8.93679988113206
endloop
endfacet
facet normal 0 0 0
outer loop
vertex 4.036847705426075 1.2161745783285394 -9.850613931520444
vertex 3.0459852540182126 -9.124493527220068 -9.599408262515663
vertex 9.380774320373103 -3.0909338391589625 -8.93679988113206
endloop
endfacet
facet normal 0 0 0
outer loop
vertex 5.176705837931255 -1.392152516468407 9.069060427586919
vertex 8.902533603015769 1.8634837492832759 8.857358371374207
vertex 5.7702460399435385 -7.968652610842182 8.205611129128233
endloop
endfacet
facet normal 0 0 0
outer loop
vertex -2.7528987934895905 -4.369973611531039 9.864519875946634
vertex 5.176705837931255 -1.392152516468407 9.069060427586919
vertex 5.7702460399435385 -7.968652610842182 8.205611129128233
endloop
endfacet
facet normal 0 0 0
outer loop
vertex 8.902533603015769 1.8634837492832759 8.857358371374207
vertex 9.196230971641526 2.2009264629820606 8.659049048353104
vertex 5.7702460399435385 -7.968652610842182 8.205611129128233
endloop
endfacet
facet normal 0 0 0
outer loop
vertex -2.164229532156998 -8.368524959222967 9.171318531859725
vertex -2.7528987934895905 -4.369973611531039 9.864519875946634
vertex 5.7702460399435385 -7.968652610842182 8.205611129128233
endloop
endfacet
facet normal 0 0 0
outer loop
vertex -3.9123050129914123 -9.800745154419408 6.962755401795295
vertex -2.164229532156998 -8.368524959222967 9.171318531859725
vertex 5.7702460399435385 -7.968652610842182 8.205611129128233
endloop
endfacet
facet normal 0 0 0
outer loop
vertex 9.196230971641526 2.2009264629820606 8.659049048353104
vertex 9.751752066858963 -5.2109293502858485 4.188376617089842
vertex 5.7702460399435385 -7.968652610842182 8.205611129128233
endloop
endfacet
facet normal 0 0 0
outer loop
vertex 9.95763488548241 -9.324706913686075 -7.628787958153063
vertex 3.0459852540182126 -9.124493527220068 -9.599408262515663
vertex -2.2499992658626873 -9.955590058717497 -8.246623912863374
endloop
endfacet
facet normal 0 0 0
outer loop
vertex -3.9123050129914123 -9.800745154419408 6.962755401795295
vertex -0.02390429810620809 -9.871369958156302 3.1050790714043526
vertex -2.2499992658626873 -9.955590058717497 -8.246623912863374
endloop
endfacet
facet normal 0 0 0
outer loop
vertex -9.263086390783632 -8.846817852407074 -9.144250024711972
vertex -3.9123050129914123 -9.800745154419408 6.962755401795295
vertex -2.2499992658626873 -9.955590058717497 -8.246623912863374
endloop
endfacet
facet normal 0 0 0
outer loop
vertex 3.0459852540182126 -9.124493527220068 -9.599408262515663
vertex -9.263086390783632 -8.846817852407074 -9.144250024711972
vertex -2.2499992658626873 -9.955590058717497 -8.246623912863374
endloop
endfacet
facet normal 0 0 0
outer loop
vertex -0.02390429810620809 -9.871369958156302 3.1050790714043526
vertex -3.9123050129914123 -9.800745154419408 6.962755401795295
vertex 7.3239953893965115 -9.519391060124123 1.8091537880820674
endloop
endfacet
facet normal 0 0 0
outer loop
vertex 9.751752066858963 -5.2109293502858485 4.188376617089842
vertex 9.95763488548241 -9.324706913686075 -7.628787958153063
vertex 7.3239953893965115 -9.519391060124123 1.8091537880820674
endloop
endfacet
facet normal 0 0 0
outer loop
vertex -3.9123050129914123 -9.800745154419408 6.962755401795295
vertex 5.7702460399435385 -7.968652610842182 8.205611129128233
vertex 7.3239953893965115 -9.519391060124123 1.8091537880820674
endloop
endfacet
facet normal 0 0 0
outer loop
vertex 5.7702460399435385 -7.968652610842182 8.205611129128233
vertex 9.751752066858963 -5.2109293502858485 4.188376617089842
vertex 7.3239953893965115 -9.519391060124123 1.8091537880820674
endloop
endfacet
facet normal 0 0 0
outer loop
vertex 9.95763488548241 -9.324706913686075 -7.628787958153063
vertex -2.2499992658626873 -9.955590058717497 -8.246623912863374
vertex 7.3239953893965115 -9.519391060124123 1.8091537880820674
endloop
endfacet
facet normal 0 0 0
outer loop
vertex -2.2499992658626873 -9.955590058717497 -8.246623912863374
vertex -0.02390429810620809 -9.871369958156302 3.1050790714043526
vertex 7.3239953893965115 -9.519391060124123 1.8091537880820674
endloop
endfacet
facet normal 0 0 0
outer loop
vertex -9.920772725527623 6.861646268536116 -0.8982136409000834
vertex -5.782354415081854 6.006580769564554 -7.073535761056402
vertex 4.560482610837379 8.2467241511006 -8.126151975241008
endloop
endfacet
facet normal 0 0 0
outer loop
vertex -5.782354415081854 6.006580769564554 -7.073535761056402
vertex -0.12367457920722558 4.596189273030305 -9.936996944693227
vertex 4.560482610837379 8.2467241511006 -8.126151975241008
endloop
endfacet
facet normal 0 0 0
outer loop
vertex 0.6978074669685252 9.45098336583403 7.0456851690540425
vertex -9.920772725527623 6.861646268536116 -0.8982136409000834
vertex 4.560482610837379 8.2467241511006 -8.126151975241008
endloop
endfacet
facet normal 0 0 0
outer loop
vertex 8.732837587197274 9.222977457457816 3.036172157450295
vertex 0.6978074669685252 9.45098336583403 7.0456851690540425
vertex 4.560482610837379 8.2467241511006 -8.126151975241008
endloop
endfacet
facet normal 0 0 0
outer loop
vertex 8.645359261150784 2.963859503315838 -7.3745364195484076
vertex 8.732837587197274 9.222977457457816 3.036172157450295
vertex 4.560482610837379 8.2467241511006 -8.126151975241008
endloop
endfacet
facet normal 0 0 0
outer loop
vertex 9.57133203673951 0.5368141976527685 -7.952231938025845
vertex 8.645359261150784 2.963859503315838 -7.3745364195484076
vertex 4.560482610837379 8.2467241511006 -8.126151975241008
endloop
endfacet
facet normal 0 0 0
outer loop
vertex -0.12367457920722558 4.596189273030305 -9.936996944693227
vertex 4.036847705426075 1.2161745783285394 -9.850613931520444
vertex 4.560482610837379 8.2467241511006 -8.126151975241008
endloop
endfacet
facet normal 0 0 0
outer loop
vertex 9.380774320373103 -3.0909338391589625 -8.93679988113206
vertex 9.57133203673951 0.5368141976527685 -7.952231938025845
vertex 4.560482610837379 8.2467241511006 -8.126151975241008
endloop
endfacet
facet normal 0 0 0
outer loop
vertex 4.036847705426075 1.2161745783285394 -9.850613931520444
vertex 9.380774320373103 -3.0909338391589625 -8.93679988113206
vertex 4.560482610837379 8.2467241511006 -8.126151975241008
endloop
endfacet
endsolid points
